<mxfile host="Electron" agent="Mozilla/5.0 (Windows NT 10.0; Win64; x64) AppleWebKit/537.36 (KHTML, like Gecko) draw.io/28.1.2 Chrome/138.0.7204.243 Electron/37.4.0 Safari/537.36" version="28.1.2">
  <diagram name="Page-1" id="xsYCff7whP4TqLQf7cTJ">
    <mxGraphModel dx="1616" dy="398" grid="0" gridSize="10" guides="1" tooltips="1" connect="1" arrows="1" fold="1" page="1" pageScale="1" pageWidth="850" pageHeight="1100" background="none" math="0" shadow="0">
      <root>
        <mxCell id="0" />
        <mxCell id="1" parent="0" />
        <mxCell id="im6KT_Uo68lldDrzzcDX-3" value="" style="shape=umlLifeline;perimeter=lifelinePerimeter;whiteSpace=wrap;html=1;container=1;dropTarget=0;collapsible=0;recursiveResize=0;outlineConnect=0;portConstraint=eastwest;newEdgeStyle={&quot;curved&quot;:0,&quot;rounded&quot;:0};participant=umlActor;" vertex="1" parent="1">
          <mxGeometry x="71" y="369" width="20" height="300" as="geometry" />
        </mxCell>
        <mxCell id="im6KT_Uo68lldDrzzcDX-16" value="" style="html=1;points=[[0,0,0,0,5],[0,1,0,0,-5],[1,0,0,0,5],[1,1,0,0,-5]];perimeter=orthogonalPerimeter;outlineConnect=0;targetShapes=umlLifeline;portConstraint=eastwest;newEdgeStyle={&quot;curved&quot;:0,&quot;rounded&quot;:0};" vertex="1" parent="im6KT_Uo68lldDrzzcDX-3">
          <mxGeometry x="5" y="57" width="10" height="188" as="geometry" />
        </mxCell>
        <mxCell id="im6KT_Uo68lldDrzzcDX-4" value="Login Controller" style="shape=umlLifeline;perimeter=lifelinePerimeter;whiteSpace=wrap;html=1;container=1;dropTarget=0;collapsible=0;recursiveResize=0;outlineConnect=0;portConstraint=eastwest;newEdgeStyle={&quot;curved&quot;:0,&quot;rounded&quot;:0};" vertex="1" parent="1">
          <mxGeometry x="147" y="369" width="100" height="300" as="geometry" />
        </mxCell>
        <mxCell id="im6KT_Uo68lldDrzzcDX-18" value="" style="html=1;points=[[0,0,0,0,5],[0,1,0,0,-5],[1,0,0,0,5],[1,1,0,0,-5]];perimeter=orthogonalPerimeter;outlineConnect=0;targetShapes=umlLifeline;portConstraint=eastwest;newEdgeStyle={&quot;curved&quot;:0,&quot;rounded&quot;:0};" vertex="1" parent="im6KT_Uo68lldDrzzcDX-4">
          <mxGeometry x="45" y="75" width="10" height="168" as="geometry" />
        </mxCell>
        <mxCell id="im6KT_Uo68lldDrzzcDX-5" value="Database" style="shape=umlLifeline;perimeter=lifelinePerimeter;whiteSpace=wrap;html=1;container=1;dropTarget=0;collapsible=0;recursiveResize=0;outlineConnect=0;portConstraint=eastwest;newEdgeStyle={&quot;curved&quot;:0,&quot;rounded&quot;:0};" vertex="1" parent="1">
          <mxGeometry x="290" y="369" width="100" height="300" as="geometry" />
        </mxCell>
        <mxCell id="im6KT_Uo68lldDrzzcDX-19" value="" style="html=1;points=[[0,0,0,0,5],[0,1,0,0,-5],[1,0,0,0,5],[1,1,0,0,-5]];perimeter=orthogonalPerimeter;outlineConnect=0;targetShapes=umlLifeline;portConstraint=eastwest;newEdgeStyle={&quot;curved&quot;:0,&quot;rounded&quot;:0};" vertex="1" parent="im6KT_Uo68lldDrzzcDX-5">
          <mxGeometry x="45" y="74" width="10" height="43" as="geometry" />
        </mxCell>
        <mxCell id="im6KT_Uo68lldDrzzcDX-6" value="Session Manager" style="shape=umlLifeline;perimeter=lifelinePerimeter;whiteSpace=wrap;html=1;container=1;dropTarget=0;collapsible=0;recursiveResize=0;outlineConnect=0;portConstraint=eastwest;newEdgeStyle={&quot;curved&quot;:0,&quot;rounded&quot;:0};" vertex="1" parent="1">
          <mxGeometry x="433" y="369" width="100" height="300" as="geometry" />
        </mxCell>
        <mxCell id="im6KT_Uo68lldDrzzcDX-20" value="" style="html=1;points=[[0,0,0,0,5],[0,1,0,0,-5],[1,0,0,0,5],[1,1,0,0,-5]];perimeter=orthogonalPerimeter;outlineConnect=0;targetShapes=umlLifeline;portConstraint=eastwest;newEdgeStyle={&quot;curved&quot;:0,&quot;rounded&quot;:0};" vertex="1" parent="im6KT_Uo68lldDrzzcDX-6">
          <mxGeometry x="45" y="133" width="10" height="24" as="geometry" />
        </mxCell>
        <mxCell id="im6KT_Uo68lldDrzzcDX-7" value="Error Handler" style="shape=umlLifeline;perimeter=lifelinePerimeter;whiteSpace=wrap;html=1;container=1;dropTarget=0;collapsible=0;recursiveResize=0;outlineConnect=0;portConstraint=eastwest;newEdgeStyle={&quot;curved&quot;:0,&quot;rounded&quot;:0};" vertex="1" parent="1">
          <mxGeometry x="576" y="369" width="100" height="312" as="geometry" />
        </mxCell>
        <mxCell id="im6KT_Uo68lldDrzzcDX-21" value="" style="html=1;points=[[0,0,0,0,5],[0,1,0,0,-5],[1,0,0,0,5],[1,1,0,0,-5]];perimeter=orthogonalPerimeter;outlineConnect=0;targetShapes=umlLifeline;portConstraint=eastwest;newEdgeStyle={&quot;curved&quot;:0,&quot;rounded&quot;:0};" vertex="1" parent="im6KT_Uo68lldDrzzcDX-7">
          <mxGeometry x="45" y="196" width="10" height="25" as="geometry" />
        </mxCell>
        <mxCell id="im6KT_Uo68lldDrzzcDX-8" value="Enter Credentials" style="html=1;verticalAlign=bottom;endArrow=block;curved=0;rounded=0;" edge="1" parent="1" source="im6KT_Uo68lldDrzzcDX-3" target="im6KT_Uo68lldDrzzcDX-4">
          <mxGeometry width="80" relative="1" as="geometry">
            <mxPoint x="111" y="438" as="sourcePoint" />
            <mxPoint x="191" y="438" as="targetPoint" />
            <Array as="points">
              <mxPoint x="152" y="431" />
            </Array>
          </mxGeometry>
        </mxCell>
        <mxCell id="im6KT_Uo68lldDrzzcDX-10" value="Validate User &amp;amp; Fetch Role" style="html=1;verticalAlign=bottom;endArrow=block;curved=0;rounded=0;" edge="1" parent="1" source="im6KT_Uo68lldDrzzcDX-4" target="im6KT_Uo68lldDrzzcDX-5">
          <mxGeometry width="80" relative="1" as="geometry">
            <mxPoint x="243" y="449" as="sourcePoint" />
            <mxPoint x="359" y="449" as="targetPoint" />
            <Array as="points">
              <mxPoint x="314" y="449" />
            </Array>
          </mxGeometry>
        </mxCell>
        <mxCell id="im6KT_Uo68lldDrzzcDX-12" value="return user + role / error" style="html=1;verticalAlign=bottom;endArrow=open;dashed=1;endSize=8;curved=0;rounded=0;" edge="1" parent="1" source="im6KT_Uo68lldDrzzcDX-5" target="im6KT_Uo68lldDrzzcDX-4">
          <mxGeometry relative="1" as="geometry">
            <mxPoint x="321" y="499" as="sourcePoint" />
            <mxPoint x="241" y="499" as="targetPoint" />
            <Array as="points">
              <mxPoint x="274" y="480" />
            </Array>
          </mxGeometry>
        </mxCell>
        <mxCell id="im6KT_Uo68lldDrzzcDX-13" value="Create Session, if Valid" style="html=1;verticalAlign=bottom;endArrow=block;curved=0;rounded=0;" edge="1" parent="1" source="im6KT_Uo68lldDrzzcDX-4" target="im6KT_Uo68lldDrzzcDX-6">
          <mxGeometry width="80" relative="1" as="geometry">
            <mxPoint x="233" y="537" as="sourcePoint" />
            <mxPoint x="349" y="537" as="targetPoint" />
            <Array as="points">
              <mxPoint x="249" y="515" />
              <mxPoint x="432" y="515" />
            </Array>
          </mxGeometry>
        </mxCell>
        <mxCell id="im6KT_Uo68lldDrzzcDX-14" value="Send Error, if Invalid" style="html=1;verticalAlign=bottom;endArrow=block;curved=0;rounded=0;" edge="1" parent="1" source="im6KT_Uo68lldDrzzcDX-18" target="im6KT_Uo68lldDrzzcDX-7">
          <mxGeometry width="80" relative="1" as="geometry">
            <mxPoint x="202" y="556" as="sourcePoint" />
            <mxPoint x="488" y="556" as="targetPoint" />
            <Array as="points">
              <mxPoint x="255" y="579" />
              <mxPoint x="383" y="579" />
              <mxPoint x="438" y="578" />
            </Array>
          </mxGeometry>
        </mxCell>
        <mxCell id="im6KT_Uo68lldDrzzcDX-15" value="Login Success" style="html=1;verticalAlign=bottom;endArrow=open;dashed=1;endSize=8;curved=0;rounded=0;" edge="1" parent="1" source="im6KT_Uo68lldDrzzcDX-4" target="im6KT_Uo68lldDrzzcDX-3">
          <mxGeometry relative="1" as="geometry">
            <mxPoint x="214" y="588" as="sourcePoint" />
            <mxPoint x="71" y="588" as="targetPoint" />
            <Array as="points">
              <mxPoint x="148" y="534" />
            </Array>
          </mxGeometry>
        </mxCell>
        <mxCell id="im6KT_Uo68lldDrzzcDX-22" value="alt" style="shape=umlFrame;whiteSpace=wrap;html=1;pointerEvents=0;" vertex="1" parent="1">
          <mxGeometry x="-108" y="491" width="794" height="140" as="geometry" />
        </mxCell>
        <mxCell id="im6KT_Uo68lldDrzzcDX-23" value="Fail Message" style="html=1;verticalAlign=bottom;endArrow=open;dashed=1;endSize=8;curved=0;rounded=0;" edge="1" parent="1" source="im6KT_Uo68lldDrzzcDX-4" target="im6KT_Uo68lldDrzzcDX-3">
          <mxGeometry relative="1" as="geometry">
            <mxPoint x="229" y="613" as="sourcePoint" />
            <mxPoint x="113" y="613" as="targetPoint" />
            <Array as="points">
              <mxPoint x="188" y="600" />
              <mxPoint x="144" y="601" />
            </Array>
          </mxGeometry>
        </mxCell>
        <mxCell id="im6KT_Uo68lldDrzzcDX-24" value="" style="endArrow=none;dashed=1;html=1;dashPattern=1 3;strokeWidth=2;rounded=0;exitX=0.001;exitY=0.487;exitDx=0;exitDy=0;exitPerimeter=0;entryX=1.002;entryY=0.468;entryDx=0;entryDy=0;entryPerimeter=0;" edge="1" parent="1" source="im6KT_Uo68lldDrzzcDX-22" target="im6KT_Uo68lldDrzzcDX-22">
          <mxGeometry width="50" height="50" relative="1" as="geometry">
            <mxPoint x="252" y="560" as="sourcePoint" />
            <mxPoint x="302" y="510" as="targetPoint" />
          </mxGeometry>
        </mxCell>
        <mxCell id="im6KT_Uo68lldDrzzcDX-25" value="&lt;b&gt;If Valid&lt;/b&gt;" style="text;html=1;align=center;verticalAlign=middle;resizable=0;points=[];autosize=1;strokeColor=none;fillColor=none;" vertex="1" parent="1">
          <mxGeometry x="-109" y="524" width="57" height="26" as="geometry" />
        </mxCell>
        <mxCell id="im6KT_Uo68lldDrzzcDX-28" value="&lt;b&gt;Else&lt;/b&gt;" style="text;html=1;align=center;verticalAlign=middle;resizable=0;points=[];autosize=1;strokeColor=none;fillColor=none;" vertex="1" parent="1">
          <mxGeometry x="-102.5" y="563" width="43" height="26" as="geometry" />
        </mxCell>
      </root>
    </mxGraphModel>
  </diagram>
</mxfile>
